G75*
%MOIN*%
%OFA0B0*%
%FSLAX25Y25*%
%IPPOS*%
%LPD*%
%AMOC8*
5,1,8,0,0,1.08239X$1,22.5*
%
%ADD10C,0.00300*%
%ADD11C,0.00600*%
%ADD12C,0.00200*%
%ADD13C,0.00500*%
D10*
X0003650Y0011150D02*
X0003650Y0013619D01*
X0004884Y0013619D02*
X0005502Y0013619D01*
X0004884Y0013619D02*
X0003650Y0012384D01*
X0006719Y0012384D02*
X0009188Y0012384D01*
X0009188Y0013002D01*
X0008571Y0013619D01*
X0007336Y0013619D01*
X0006719Y0013002D01*
X0006719Y0011767D01*
X0007336Y0011150D01*
X0008571Y0011150D01*
X0011637Y0011150D02*
X0012871Y0013619D01*
X0014086Y0014236D02*
X0014703Y0014853D01*
X0015937Y0014853D01*
X0016554Y0014236D01*
X0016554Y0013619D01*
X0014086Y0011150D01*
X0016554Y0011150D01*
X0011637Y0011150D02*
X0010402Y0013619D01*
X0009802Y0016150D02*
X0007950Y0016150D01*
X0007333Y0016767D01*
X0007333Y0018619D01*
X0006119Y0018002D02*
X0006119Y0016150D01*
X0004884Y0016150D02*
X0004884Y0018002D01*
X0005502Y0018619D01*
X0006119Y0018002D01*
X0004884Y0018002D02*
X0004267Y0018619D01*
X0003650Y0018619D01*
X0003650Y0016150D01*
X0009802Y0016150D02*
X0009802Y0018619D01*
X0011016Y0018619D02*
X0013485Y0016150D01*
X0014699Y0015533D02*
X0017168Y0015533D01*
X0018383Y0016150D02*
X0020234Y0016150D01*
X0020851Y0016767D01*
X0020234Y0017384D01*
X0019000Y0017384D01*
X0018383Y0018002D01*
X0019000Y0018619D01*
X0020851Y0018619D01*
X0022066Y0018002D02*
X0022683Y0018619D01*
X0023917Y0018619D01*
X0024534Y0018002D01*
X0024534Y0016150D01*
X0022066Y0016150D02*
X0022066Y0019853D01*
X0017168Y0021150D02*
X0015317Y0021150D01*
X0014699Y0021767D01*
X0015317Y0022384D01*
X0017168Y0022384D01*
X0017168Y0023002D02*
X0017168Y0021150D01*
X0017168Y0023002D02*
X0016551Y0023619D01*
X0015317Y0023619D01*
X0013485Y0023619D02*
X0012251Y0021150D01*
X0011016Y0023619D01*
X0009802Y0023002D02*
X0009802Y0021150D01*
X0007950Y0021150D01*
X0007333Y0021767D01*
X0007950Y0022384D01*
X0009802Y0022384D01*
X0009802Y0023002D02*
X0009185Y0023619D01*
X0007950Y0023619D01*
X0006119Y0023002D02*
X0006119Y0021150D01*
X0003650Y0021150D02*
X0003650Y0023619D01*
X0005502Y0023619D01*
X0006119Y0023002D01*
X0011016Y0016150D02*
X0013485Y0018619D01*
X0029373Y0022767D02*
X0029990Y0022150D01*
X0031842Y0022150D01*
X0033056Y0022150D02*
X0034291Y0022150D01*
X0033674Y0022150D02*
X0033674Y0024619D01*
X0033056Y0024619D01*
X0031842Y0024619D02*
X0029990Y0024619D01*
X0029373Y0024002D01*
X0029373Y0022767D01*
X0033674Y0025853D02*
X0033674Y0026470D01*
X0035512Y0024619D02*
X0035512Y0022150D01*
X0035512Y0023384D02*
X0036746Y0024619D01*
X0037363Y0024619D01*
X0038581Y0024002D02*
X0038581Y0022767D01*
X0039198Y0022150D01*
X0041050Y0022150D01*
X0042264Y0022767D02*
X0042881Y0022150D01*
X0044733Y0022150D01*
X0044733Y0024619D01*
X0045947Y0024619D02*
X0046565Y0024619D01*
X0046565Y0022150D01*
X0047182Y0022150D02*
X0045947Y0022150D01*
X0049020Y0022767D02*
X0049637Y0022150D01*
X0049020Y0022767D02*
X0049020Y0025236D01*
X0048403Y0024619D02*
X0049637Y0024619D01*
X0046565Y0025853D02*
X0046565Y0026470D01*
X0042264Y0024619D02*
X0042264Y0022767D01*
X0041050Y0024619D02*
X0039198Y0024619D01*
X0038581Y0024002D01*
X0034294Y0030916D02*
X0033677Y0030916D01*
X0034294Y0030916D02*
X0034911Y0031533D01*
X0034911Y0034619D01*
X0036126Y0034002D02*
X0036126Y0032767D01*
X0036743Y0032150D01*
X0037977Y0032150D01*
X0038594Y0032767D01*
X0038594Y0034002D01*
X0037977Y0034619D01*
X0036743Y0034619D01*
X0036126Y0034002D01*
X0034911Y0032150D02*
X0033060Y0032150D01*
X0032442Y0032767D01*
X0032442Y0034619D01*
X0031228Y0034002D02*
X0031228Y0032150D01*
X0029377Y0032150D01*
X0028759Y0032767D01*
X0029377Y0033384D01*
X0031228Y0033384D01*
X0031228Y0034002D02*
X0030611Y0034619D01*
X0029377Y0034619D01*
X0026921Y0035853D02*
X0026921Y0032150D01*
X0026304Y0032150D02*
X0027538Y0032150D01*
X0026921Y0035853D02*
X0026304Y0035853D01*
X0039809Y0034619D02*
X0039809Y0032767D01*
X0040426Y0032150D01*
X0042278Y0032150D01*
X0042278Y0034619D01*
X0043492Y0034619D02*
X0044726Y0034619D01*
X0044109Y0035236D02*
X0044109Y0032767D01*
X0044726Y0032150D01*
X0049630Y0032150D02*
X0051482Y0032150D01*
X0052099Y0032767D01*
X0052099Y0034002D01*
X0051482Y0034619D01*
X0049630Y0034619D01*
X0049630Y0035853D02*
X0049630Y0032150D01*
X0053314Y0032767D02*
X0053314Y0034619D01*
X0055782Y0034619D02*
X0055782Y0031533D01*
X0055165Y0030916D01*
X0054548Y0030916D01*
X0053931Y0032150D02*
X0055782Y0032150D01*
X0053931Y0032150D02*
X0053314Y0032767D01*
X0060680Y0034619D02*
X0061914Y0034619D01*
X0061297Y0035236D02*
X0061297Y0032767D01*
X0061914Y0032150D01*
X0063135Y0032150D02*
X0063135Y0034619D01*
X0063135Y0033384D02*
X0064370Y0034619D01*
X0064987Y0034619D01*
X0066205Y0034002D02*
X0066822Y0034619D01*
X0068056Y0034619D01*
X0068673Y0034002D01*
X0068673Y0033384D01*
X0066205Y0033384D01*
X0066205Y0032767D02*
X0066205Y0034002D01*
X0066205Y0032767D02*
X0066822Y0032150D01*
X0068056Y0032150D01*
X0071122Y0032150D02*
X0072357Y0034619D01*
X0073571Y0034002D02*
X0073571Y0032767D01*
X0074188Y0032150D01*
X0075422Y0032150D01*
X0076040Y0032767D01*
X0076040Y0034002D01*
X0075422Y0034619D01*
X0074188Y0034619D01*
X0073571Y0034002D01*
X0071122Y0032150D02*
X0069888Y0034619D01*
X0077254Y0034619D02*
X0077254Y0032150D01*
X0077254Y0033384D02*
X0078488Y0034619D01*
X0079106Y0034619D01*
X0084006Y0034619D02*
X0084006Y0032767D01*
X0084624Y0032150D01*
X0085241Y0032767D01*
X0085858Y0032150D01*
X0086475Y0032767D01*
X0086475Y0034619D01*
X0087690Y0034619D02*
X0088307Y0034619D01*
X0088307Y0032150D01*
X0087690Y0032150D02*
X0088924Y0032150D01*
X0090145Y0032150D02*
X0091379Y0032150D01*
X0090762Y0032150D02*
X0090762Y0035853D01*
X0090145Y0035853D01*
X0088307Y0035853D02*
X0088307Y0036470D01*
X0092600Y0034002D02*
X0093218Y0034619D01*
X0095069Y0034619D01*
X0096284Y0034002D02*
X0096284Y0032767D01*
X0096901Y0032150D01*
X0098135Y0032150D01*
X0098752Y0032767D01*
X0098752Y0034002D01*
X0098135Y0034619D01*
X0096901Y0034619D01*
X0096284Y0034002D01*
X0095069Y0032767D02*
X0094452Y0033384D01*
X0093218Y0033384D01*
X0092600Y0034002D01*
X0092600Y0032150D02*
X0094452Y0032150D01*
X0095069Y0032767D01*
X0099967Y0032150D02*
X0099967Y0034619D01*
X0101818Y0034619D01*
X0102436Y0034002D01*
X0102436Y0032150D01*
X0098129Y0026470D02*
X0098129Y0025853D01*
X0098129Y0024619D02*
X0097511Y0024619D01*
X0098129Y0024619D02*
X0098129Y0022150D01*
X0098746Y0022150D02*
X0097511Y0022150D01*
X0096297Y0022150D02*
X0096297Y0024002D01*
X0095680Y0024619D01*
X0093828Y0024619D01*
X0093828Y0022150D01*
X0092614Y0022767D02*
X0092614Y0024002D01*
X0091997Y0024619D01*
X0090762Y0024619D01*
X0090145Y0024002D01*
X0090145Y0022767D01*
X0090762Y0022150D01*
X0091997Y0022150D01*
X0092614Y0022767D01*
X0088927Y0024619D02*
X0088310Y0024619D01*
X0087076Y0023384D01*
X0087076Y0022150D02*
X0087076Y0024619D01*
X0085855Y0024619D02*
X0084620Y0024619D01*
X0085238Y0025236D02*
X0085238Y0022767D01*
X0085855Y0022150D01*
X0083403Y0022150D02*
X0081551Y0023384D01*
X0083403Y0024619D01*
X0081551Y0025853D02*
X0081551Y0022150D01*
X0080337Y0022150D02*
X0078485Y0022150D01*
X0077868Y0022767D01*
X0077868Y0024002D01*
X0078485Y0024619D01*
X0080337Y0024619D01*
X0076030Y0024619D02*
X0076030Y0022150D01*
X0076647Y0022150D02*
X0075412Y0022150D01*
X0074191Y0022150D02*
X0072957Y0022150D01*
X0073574Y0022150D02*
X0073574Y0025853D01*
X0072957Y0025853D01*
X0075412Y0024619D02*
X0076030Y0024619D01*
X0076030Y0025853D02*
X0076030Y0026470D01*
X0071743Y0024002D02*
X0069274Y0024002D01*
X0068060Y0024002D02*
X0068060Y0023384D01*
X0065591Y0023384D01*
X0065591Y0022767D02*
X0065591Y0024002D01*
X0066208Y0024619D01*
X0067442Y0024619D01*
X0068060Y0024002D01*
X0067442Y0022150D02*
X0066208Y0022150D01*
X0065591Y0022767D01*
X0060693Y0022150D02*
X0058842Y0022150D01*
X0058224Y0022767D01*
X0058224Y0024619D01*
X0057010Y0024002D02*
X0056393Y0024619D01*
X0054541Y0024619D01*
X0054541Y0025853D02*
X0054541Y0022150D01*
X0056393Y0022150D01*
X0057010Y0022767D01*
X0057010Y0024002D01*
X0060693Y0024619D02*
X0060693Y0021533D01*
X0060076Y0020916D01*
X0059459Y0020916D01*
X0099967Y0022767D02*
X0100584Y0022150D01*
X0102436Y0022150D01*
X0099967Y0022767D02*
X0099967Y0024002D01*
X0100584Y0024619D01*
X0102436Y0024619D01*
X0125650Y0010552D02*
X0126617Y0010552D01*
X0126134Y0010552D02*
X0126134Y0007650D01*
X0126617Y0007650D02*
X0125650Y0007650D01*
X0127614Y0008134D02*
X0128098Y0007650D01*
X0129066Y0007650D01*
X0129549Y0008134D01*
X0130561Y0007650D02*
X0132496Y0009585D01*
X0132496Y0010069D01*
X0132012Y0010552D01*
X0131045Y0010552D01*
X0130561Y0010069D01*
X0129549Y0010069D02*
X0129066Y0010552D01*
X0128098Y0010552D01*
X0127614Y0010069D01*
X0127614Y0008134D01*
X0130561Y0007650D02*
X0132496Y0007650D01*
X0142601Y0054650D02*
X0145069Y0054650D01*
X0143835Y0054650D02*
X0143835Y0058353D01*
X0142601Y0057119D01*
X0141386Y0056502D02*
X0138917Y0056502D01*
X0146284Y0056502D02*
X0147518Y0057119D01*
X0148135Y0057119D01*
X0148752Y0056502D01*
X0148752Y0055267D01*
X0148135Y0054650D01*
X0146901Y0054650D01*
X0146284Y0055267D01*
X0146284Y0056502D02*
X0146284Y0058353D01*
X0148752Y0058353D01*
X0149967Y0058353D02*
X0149967Y0055884D01*
X0151201Y0054650D01*
X0152436Y0055884D01*
X0152436Y0058353D01*
X0125138Y0062934D02*
X0124655Y0062450D01*
X0123687Y0062450D01*
X0123203Y0062934D01*
X0123203Y0063901D02*
X0124171Y0064385D01*
X0124655Y0064385D01*
X0125138Y0063901D01*
X0125138Y0062934D01*
X0123203Y0063901D02*
X0123203Y0065352D01*
X0125138Y0065352D01*
X0122192Y0064869D02*
X0121708Y0065352D01*
X0120741Y0065352D01*
X0120257Y0064869D01*
X0120257Y0062934D01*
X0120741Y0062450D01*
X0121708Y0062450D01*
X0122192Y0062934D01*
X0119260Y0062450D02*
X0118293Y0062450D01*
X0118776Y0062450D02*
X0118776Y0065352D01*
X0118293Y0065352D02*
X0119260Y0065352D01*
X0142601Y0089650D02*
X0145069Y0089650D01*
X0143835Y0089650D02*
X0143835Y0093353D01*
X0142601Y0092119D01*
X0141386Y0091502D02*
X0138917Y0091502D01*
X0140152Y0092736D02*
X0140152Y0090267D01*
X0146284Y0090267D02*
X0146901Y0089650D01*
X0148135Y0089650D01*
X0148752Y0090267D01*
X0148752Y0091502D01*
X0148135Y0092119D01*
X0147518Y0092119D01*
X0146284Y0091502D01*
X0146284Y0093353D01*
X0148752Y0093353D01*
X0149967Y0093353D02*
X0149967Y0090884D01*
X0151201Y0089650D01*
X0152436Y0090884D01*
X0152436Y0093353D01*
X0055012Y0059552D02*
X0055012Y0056650D01*
X0055496Y0058101D02*
X0053561Y0058101D01*
X0055012Y0059552D01*
X0052549Y0059069D02*
X0052066Y0059552D01*
X0051098Y0059552D01*
X0050614Y0059069D01*
X0050614Y0057134D01*
X0051098Y0056650D01*
X0052066Y0056650D01*
X0052549Y0057134D01*
X0049617Y0056650D02*
X0048650Y0056650D01*
X0049134Y0056650D02*
X0049134Y0059552D01*
X0049617Y0059552D02*
X0048650Y0059552D01*
X0024668Y0057353D02*
X0024668Y0054884D01*
X0023434Y0053650D01*
X0022199Y0054884D01*
X0022199Y0057353D01*
X0020985Y0057353D02*
X0018516Y0057353D01*
X0018516Y0055502D01*
X0019751Y0056119D01*
X0020368Y0056119D01*
X0020985Y0055502D01*
X0020985Y0054267D01*
X0020368Y0053650D01*
X0019133Y0053650D01*
X0018516Y0054267D01*
X0017302Y0053650D02*
X0014833Y0053650D01*
X0016068Y0053650D02*
X0016068Y0057353D01*
X0014833Y0056119D01*
X0013619Y0055502D02*
X0011150Y0055502D01*
X0012601Y0089650D02*
X0015069Y0089650D01*
X0013835Y0089650D02*
X0013835Y0093353D01*
X0012601Y0092119D01*
X0011386Y0091502D02*
X0008917Y0091502D01*
X0010152Y0092736D02*
X0010152Y0090267D01*
X0016284Y0090267D02*
X0016901Y0089650D01*
X0018135Y0089650D01*
X0018752Y0090267D01*
X0018752Y0091502D01*
X0018135Y0092119D01*
X0017518Y0092119D01*
X0016284Y0091502D01*
X0016284Y0093353D01*
X0018752Y0093353D01*
X0019967Y0093353D02*
X0019967Y0090884D01*
X0021201Y0089650D01*
X0022436Y0090884D01*
X0022436Y0093353D01*
D11*
X0020000Y0088500D02*
X0021000Y0087500D01*
X0021000Y0079500D01*
X0020000Y0078500D01*
X0021000Y0077500D01*
X0021000Y0069500D01*
X0020000Y0068500D01*
X0021000Y0067500D01*
X0021000Y0059500D01*
X0020000Y0058500D01*
X0012000Y0058500D01*
X0011000Y0059500D01*
X0011000Y0067500D01*
X0012000Y0068500D01*
X0011000Y0069500D01*
X0011000Y0077500D01*
X0012000Y0078500D01*
X0011000Y0079500D01*
X0011000Y0087500D01*
X0012000Y0088500D01*
X0020000Y0088500D01*
X0079819Y0088638D02*
X0082181Y0088638D01*
X0082181Y0093362D02*
X0079819Y0093362D01*
X0094819Y0093362D02*
X0097181Y0093362D01*
X0097181Y0088638D02*
X0094819Y0088638D01*
X0089681Y0080862D02*
X0087319Y0080862D01*
X0087319Y0076138D02*
X0089681Y0076138D01*
X0094819Y0065862D02*
X0097181Y0065862D01*
X0097181Y0061138D02*
X0094819Y0061138D01*
X0082181Y0061138D02*
X0079819Y0061138D01*
X0079819Y0065862D02*
X0082181Y0065862D01*
X0106000Y0040000D02*
X0106000Y0017000D01*
X0026000Y0017000D01*
X0026000Y0024500D01*
X0026126Y0024502D01*
X0026251Y0024508D01*
X0026376Y0024518D01*
X0026501Y0024532D01*
X0026626Y0024549D01*
X0026750Y0024571D01*
X0026873Y0024596D01*
X0026995Y0024626D01*
X0027116Y0024659D01*
X0027236Y0024696D01*
X0027355Y0024736D01*
X0027472Y0024781D01*
X0027589Y0024829D01*
X0027703Y0024881D01*
X0027816Y0024936D01*
X0027927Y0024995D01*
X0028036Y0025057D01*
X0028143Y0025123D01*
X0028248Y0025192D01*
X0028351Y0025264D01*
X0028452Y0025339D01*
X0028550Y0025418D01*
X0028645Y0025500D01*
X0028738Y0025584D01*
X0028828Y0025672D01*
X0028916Y0025762D01*
X0029000Y0025855D01*
X0029082Y0025950D01*
X0029161Y0026048D01*
X0029236Y0026149D01*
X0029308Y0026252D01*
X0029377Y0026357D01*
X0029443Y0026464D01*
X0029505Y0026573D01*
X0029564Y0026684D01*
X0029619Y0026797D01*
X0029671Y0026911D01*
X0029719Y0027028D01*
X0029764Y0027145D01*
X0029804Y0027264D01*
X0029841Y0027384D01*
X0029874Y0027505D01*
X0029904Y0027627D01*
X0029929Y0027750D01*
X0029951Y0027874D01*
X0029968Y0027999D01*
X0029982Y0028124D01*
X0029992Y0028249D01*
X0029998Y0028374D01*
X0030000Y0028500D01*
X0029998Y0028626D01*
X0029992Y0028751D01*
X0029982Y0028876D01*
X0029968Y0029001D01*
X0029951Y0029126D01*
X0029929Y0029250D01*
X0029904Y0029373D01*
X0029874Y0029495D01*
X0029841Y0029616D01*
X0029804Y0029736D01*
X0029764Y0029855D01*
X0029719Y0029972D01*
X0029671Y0030089D01*
X0029619Y0030203D01*
X0029564Y0030316D01*
X0029505Y0030427D01*
X0029443Y0030536D01*
X0029377Y0030643D01*
X0029308Y0030748D01*
X0029236Y0030851D01*
X0029161Y0030952D01*
X0029082Y0031050D01*
X0029000Y0031145D01*
X0028916Y0031238D01*
X0028828Y0031328D01*
X0028738Y0031416D01*
X0028645Y0031500D01*
X0028550Y0031582D01*
X0028452Y0031661D01*
X0028351Y0031736D01*
X0028248Y0031808D01*
X0028143Y0031877D01*
X0028036Y0031943D01*
X0027927Y0032005D01*
X0027816Y0032064D01*
X0027703Y0032119D01*
X0027589Y0032171D01*
X0027472Y0032219D01*
X0027355Y0032264D01*
X0027236Y0032304D01*
X0027116Y0032341D01*
X0026995Y0032374D01*
X0026873Y0032404D01*
X0026750Y0032429D01*
X0026626Y0032451D01*
X0026501Y0032468D01*
X0026376Y0032482D01*
X0026251Y0032492D01*
X0026126Y0032498D01*
X0026000Y0032500D01*
X0026000Y0040000D01*
X0106000Y0040000D01*
X0128300Y0049500D02*
X0128300Y0012500D01*
X0128302Y0012424D01*
X0128308Y0012348D01*
X0128317Y0012273D01*
X0128331Y0012198D01*
X0128348Y0012124D01*
X0128369Y0012051D01*
X0128393Y0011979D01*
X0128422Y0011908D01*
X0128453Y0011839D01*
X0128488Y0011772D01*
X0128527Y0011707D01*
X0128569Y0011643D01*
X0128614Y0011582D01*
X0128662Y0011523D01*
X0128713Y0011467D01*
X0128767Y0011413D01*
X0128823Y0011362D01*
X0128882Y0011314D01*
X0128943Y0011269D01*
X0129007Y0011227D01*
X0129072Y0011188D01*
X0129139Y0011153D01*
X0129208Y0011122D01*
X0129279Y0011093D01*
X0129351Y0011069D01*
X0129424Y0011048D01*
X0129498Y0011031D01*
X0129573Y0011017D01*
X0129648Y0011008D01*
X0129724Y0011002D01*
X0129800Y0011000D01*
X0134000Y0011000D01*
X0138000Y0011000D01*
X0142200Y0011000D01*
X0142276Y0011002D01*
X0142352Y0011008D01*
X0142427Y0011017D01*
X0142502Y0011031D01*
X0142576Y0011048D01*
X0142649Y0011069D01*
X0142721Y0011093D01*
X0142792Y0011122D01*
X0142861Y0011153D01*
X0142928Y0011188D01*
X0142993Y0011227D01*
X0143057Y0011269D01*
X0143118Y0011314D01*
X0143177Y0011362D01*
X0143233Y0011413D01*
X0143287Y0011467D01*
X0143338Y0011523D01*
X0143386Y0011582D01*
X0143431Y0011643D01*
X0143473Y0011707D01*
X0143512Y0011772D01*
X0143547Y0011839D01*
X0143578Y0011908D01*
X0143607Y0011979D01*
X0143631Y0012051D01*
X0143652Y0012124D01*
X0143669Y0012198D01*
X0143683Y0012273D01*
X0143692Y0012348D01*
X0143698Y0012424D01*
X0143700Y0012500D01*
X0143700Y0049500D01*
X0143698Y0049576D01*
X0143692Y0049652D01*
X0143683Y0049727D01*
X0143669Y0049802D01*
X0143652Y0049876D01*
X0143631Y0049949D01*
X0143607Y0050021D01*
X0143578Y0050092D01*
X0143547Y0050161D01*
X0143512Y0050228D01*
X0143473Y0050293D01*
X0143431Y0050357D01*
X0143386Y0050418D01*
X0143338Y0050477D01*
X0143287Y0050533D01*
X0143233Y0050587D01*
X0143177Y0050638D01*
X0143118Y0050686D01*
X0143057Y0050731D01*
X0142993Y0050773D01*
X0142928Y0050812D01*
X0142861Y0050847D01*
X0142792Y0050878D01*
X0142721Y0050907D01*
X0142649Y0050931D01*
X0142576Y0050952D01*
X0142502Y0050969D01*
X0142427Y0050983D01*
X0142352Y0050992D01*
X0142276Y0050998D01*
X0142200Y0051000D01*
X0129800Y0051000D01*
X0129724Y0050998D01*
X0129648Y0050992D01*
X0129573Y0050983D01*
X0129498Y0050969D01*
X0129424Y0050952D01*
X0129351Y0050931D01*
X0129279Y0050907D01*
X0129208Y0050878D01*
X0129139Y0050847D01*
X0129072Y0050812D01*
X0129007Y0050773D01*
X0128943Y0050731D01*
X0128882Y0050686D01*
X0128823Y0050638D01*
X0128767Y0050587D01*
X0128713Y0050533D01*
X0128662Y0050477D01*
X0128614Y0050418D01*
X0128569Y0050357D01*
X0128527Y0050293D01*
X0128488Y0050228D01*
X0128453Y0050161D01*
X0128422Y0050092D01*
X0128393Y0050021D01*
X0128369Y0049949D01*
X0128348Y0049876D01*
X0128331Y0049802D01*
X0128317Y0049727D01*
X0128308Y0049652D01*
X0128302Y0049576D01*
X0128300Y0049500D01*
X0143500Y0059500D02*
X0144500Y0058500D01*
X0152500Y0058500D01*
X0153500Y0059500D01*
X0153500Y0067500D01*
X0152500Y0068500D01*
X0153500Y0069500D01*
X0153500Y0077500D01*
X0152500Y0078500D01*
X0153500Y0079500D01*
X0153500Y0087500D01*
X0152500Y0088500D01*
X0144500Y0088500D01*
X0143500Y0087500D01*
X0143500Y0079500D01*
X0144500Y0078500D01*
X0143500Y0077500D01*
X0143500Y0069500D01*
X0144500Y0068500D01*
X0143500Y0067500D01*
X0143500Y0059500D01*
X0138000Y0011000D02*
X0137998Y0011088D01*
X0137992Y0011177D01*
X0137982Y0011265D01*
X0137969Y0011352D01*
X0137951Y0011439D01*
X0137930Y0011525D01*
X0137905Y0011610D01*
X0137876Y0011693D01*
X0137843Y0011776D01*
X0137807Y0011856D01*
X0137768Y0011935D01*
X0137725Y0012013D01*
X0137678Y0012088D01*
X0137628Y0012161D01*
X0137575Y0012232D01*
X0137519Y0012301D01*
X0137460Y0012367D01*
X0137398Y0012430D01*
X0137334Y0012490D01*
X0137267Y0012548D01*
X0137197Y0012602D01*
X0137125Y0012654D01*
X0137051Y0012702D01*
X0136974Y0012747D01*
X0136896Y0012788D01*
X0136816Y0012826D01*
X0136735Y0012860D01*
X0136652Y0012891D01*
X0136567Y0012918D01*
X0136482Y0012941D01*
X0136396Y0012960D01*
X0136308Y0012976D01*
X0136221Y0012988D01*
X0136133Y0012996D01*
X0136044Y0013000D01*
X0135956Y0013000D01*
X0135867Y0012996D01*
X0135779Y0012988D01*
X0135692Y0012976D01*
X0135604Y0012960D01*
X0135518Y0012941D01*
X0135433Y0012918D01*
X0135348Y0012891D01*
X0135265Y0012860D01*
X0135184Y0012826D01*
X0135104Y0012788D01*
X0135026Y0012747D01*
X0134949Y0012702D01*
X0134875Y0012654D01*
X0134803Y0012602D01*
X0134733Y0012548D01*
X0134666Y0012490D01*
X0134602Y0012430D01*
X0134540Y0012367D01*
X0134481Y0012301D01*
X0134425Y0012232D01*
X0134372Y0012161D01*
X0134322Y0012088D01*
X0134275Y0012013D01*
X0134232Y0011935D01*
X0134193Y0011856D01*
X0134157Y0011776D01*
X0134124Y0011693D01*
X0134095Y0011610D01*
X0134070Y0011525D01*
X0134049Y0011439D01*
X0134031Y0011352D01*
X0134018Y0011265D01*
X0134008Y0011177D01*
X0134002Y0011088D01*
X0134000Y0011000D01*
X0020862Y0034819D02*
X0020862Y0037181D01*
X0016138Y0037181D02*
X0016138Y0034819D01*
X0010862Y0034819D02*
X0010862Y0037181D01*
X0006138Y0037181D02*
X0006138Y0034819D01*
D12*
X0011848Y0034757D02*
X0012215Y0034390D01*
X0013683Y0034390D01*
X0012215Y0035858D01*
X0013683Y0035858D01*
X0014050Y0035491D01*
X0014050Y0034757D01*
X0013683Y0034390D01*
X0014050Y0033648D02*
X0014050Y0032180D01*
X0014050Y0032914D02*
X0011848Y0032914D01*
X0012582Y0032180D01*
X0012215Y0031438D02*
X0011848Y0031071D01*
X0011848Y0030337D01*
X0012215Y0029970D01*
X0013683Y0029970D01*
X0014050Y0030337D01*
X0014050Y0031071D01*
X0013683Y0031438D01*
X0011848Y0034757D02*
X0011848Y0035491D01*
X0012215Y0035858D01*
X0021848Y0035491D02*
X0021848Y0034757D01*
X0022215Y0034390D01*
X0022582Y0034390D01*
X0022949Y0034757D01*
X0022949Y0035858D01*
X0023683Y0035858D02*
X0022215Y0035858D01*
X0021848Y0035491D01*
X0023683Y0035858D02*
X0024050Y0035491D01*
X0024050Y0034757D01*
X0023683Y0034390D01*
X0023683Y0033648D02*
X0024050Y0033281D01*
X0024050Y0032547D01*
X0023683Y0032180D01*
X0022215Y0032180D01*
X0021848Y0032547D01*
X0021848Y0033281D01*
X0022215Y0033648D01*
X0085600Y0067217D02*
X0085967Y0066850D01*
X0086701Y0066850D01*
X0087068Y0067217D01*
X0087810Y0067217D02*
X0088177Y0066850D01*
X0088911Y0066850D01*
X0089278Y0067217D01*
X0089278Y0067951D01*
X0088911Y0068318D01*
X0088544Y0068318D01*
X0087810Y0067951D01*
X0087810Y0069052D01*
X0089278Y0069052D01*
X0087068Y0068685D02*
X0086701Y0069052D01*
X0085967Y0069052D01*
X0085600Y0068685D01*
X0085600Y0067217D01*
X0093100Y0067217D02*
X0093467Y0066850D01*
X0094201Y0066850D01*
X0094568Y0067217D01*
X0095310Y0067217D02*
X0095677Y0066850D01*
X0096411Y0066850D01*
X0096778Y0067217D01*
X0096778Y0067584D01*
X0096411Y0067951D01*
X0095677Y0067951D01*
X0095310Y0068318D01*
X0095310Y0068685D01*
X0095677Y0069052D01*
X0096411Y0069052D01*
X0096778Y0068685D01*
X0096778Y0068318D01*
X0096411Y0067951D01*
X0095677Y0067951D02*
X0095310Y0067584D01*
X0095310Y0067217D01*
X0094568Y0068685D02*
X0094201Y0069052D01*
X0093467Y0069052D01*
X0093100Y0068685D01*
X0093100Y0067217D01*
X0093467Y0081850D02*
X0093100Y0082217D01*
X0093100Y0083685D01*
X0093467Y0084052D01*
X0094201Y0084052D01*
X0094568Y0083685D01*
X0095310Y0084052D02*
X0096778Y0084052D01*
X0096778Y0083685D01*
X0095310Y0082217D01*
X0095310Y0081850D01*
X0094568Y0082217D02*
X0094201Y0081850D01*
X0093467Y0081850D01*
X0093467Y0094350D02*
X0093100Y0094717D01*
X0093100Y0096185D01*
X0093467Y0096552D01*
X0094201Y0096552D01*
X0094568Y0096185D01*
X0095310Y0095451D02*
X0096778Y0095451D01*
X0096411Y0094350D02*
X0096411Y0096552D01*
X0095310Y0095451D01*
X0094568Y0094717D02*
X0094201Y0094350D01*
X0093467Y0094350D01*
X0076778Y0094717D02*
X0076778Y0095084D01*
X0076411Y0095451D01*
X0075310Y0095451D01*
X0075310Y0094717D01*
X0075677Y0094350D01*
X0076411Y0094350D01*
X0076778Y0094717D01*
X0076044Y0096185D02*
X0075310Y0095451D01*
X0076044Y0096185D02*
X0076778Y0096552D01*
X0074568Y0096185D02*
X0074201Y0096552D01*
X0073467Y0096552D01*
X0073100Y0096185D01*
X0073100Y0094717D01*
X0073467Y0094350D01*
X0074201Y0094350D01*
X0074568Y0094717D01*
X0142300Y0051000D02*
X0142300Y0011000D01*
D13*
X0141083Y0060159D02*
X0141650Y0060726D01*
X0141650Y0061860D01*
X0141083Y0062428D01*
X0140516Y0062428D01*
X0139949Y0061860D01*
X0139949Y0061293D01*
X0139949Y0061860D02*
X0139381Y0062428D01*
X0138814Y0062428D01*
X0138247Y0061860D01*
X0138247Y0060726D01*
X0138814Y0060159D01*
X0138814Y0070159D02*
X0138247Y0070726D01*
X0138247Y0071860D01*
X0138814Y0072428D01*
X0139381Y0072428D01*
X0141650Y0070159D01*
X0141650Y0072428D01*
X0141650Y0080159D02*
X0141650Y0082428D01*
X0141650Y0081293D02*
X0138247Y0081293D01*
X0139381Y0080159D01*
X0009150Y0080159D02*
X0009150Y0082428D01*
X0009150Y0081293D02*
X0005747Y0081293D01*
X0006881Y0080159D01*
X0006881Y0072428D02*
X0006314Y0072428D01*
X0005747Y0071860D01*
X0005747Y0070726D01*
X0006314Y0070159D01*
X0006881Y0072428D02*
X0009150Y0070159D01*
X0009150Y0072428D01*
X0008583Y0062428D02*
X0008016Y0062428D01*
X0007449Y0061860D01*
X0007449Y0061293D01*
X0007449Y0061860D02*
X0006881Y0062428D01*
X0006314Y0062428D01*
X0005747Y0061860D01*
X0005747Y0060726D01*
X0006314Y0060159D01*
X0008583Y0060159D02*
X0009150Y0060726D01*
X0009150Y0061860D01*
X0008583Y0062428D01*
M02*
