%
M48
M72
T01C0.0240
T02C0.0320
T03C0.0360
%
T01
X2710Y6940
X3070Y7300
X3070Y7840
X5140Y6940
X6580Y8110
X7480Y7300
X8110Y7210
X7300Y9100
X11980Y7390
X13690Y2350
X11620Y1900
T02
X3100Y1350
X4100Y1350
X5100Y1350
X6100Y1350
X7100Y1350
X8100Y1350
X9100Y1350
X10100Y1350
X10100Y4350
X9100Y4350
X8100Y4350
X7100Y4350
X6100Y4350
X5100Y4350
X4100Y4350
X3100Y4350
T03
X1600Y6350
X1600Y7350
X1600Y8350
X14850Y8350
X14850Y7350
X14850Y6350
M30
