G75*
%MOIN*%
%OFA0B0*%
%FSLAX25Y25*%
%IPPOS*%
%LPD*%
%AMOC8*
5,1,8,0,0,1.08239X$1,22.5*
%
%ADD10R,0.04724X0.03150*%
%ADD11R,0.03150X0.04724*%
%ADD12R,0.08000X0.02600*%
%ADD13R,0.08661X0.02362*%
D10*
X0008500Y0032457D03*
X0008500Y0039543D03*
X0018500Y0039543D03*
X0018500Y0032457D03*
D11*
X0077457Y0063500D03*
X0084543Y0063500D03*
X0092457Y0063500D03*
X0099543Y0063500D03*
X0092043Y0078500D03*
X0084957Y0078500D03*
X0084543Y0091000D03*
X0077457Y0091000D03*
X0092457Y0091000D03*
X0099543Y0091000D03*
D12*
X0123900Y0048500D03*
X0123900Y0043500D03*
X0123900Y0038500D03*
X0123900Y0033500D03*
X0123900Y0028500D03*
X0123900Y0023500D03*
X0123900Y0018500D03*
X0123900Y0013500D03*
X0148100Y0013500D03*
X0148100Y0018500D03*
X0148100Y0023500D03*
X0148100Y0028500D03*
X0148100Y0033500D03*
X0148100Y0038500D03*
X0148100Y0043500D03*
X0148100Y0048500D03*
D13*
X0128736Y0068500D03*
X0128736Y0073500D03*
X0128736Y0078500D03*
X0128736Y0083500D03*
X0108264Y0083500D03*
X0108264Y0078500D03*
X0108264Y0073500D03*
X0108264Y0068500D03*
X0058736Y0068500D03*
X0058736Y0063500D03*
X0058736Y0073500D03*
X0058736Y0078500D03*
X0058736Y0083500D03*
X0058736Y0088500D03*
X0058736Y0093500D03*
X0038264Y0093500D03*
X0038264Y0088500D03*
X0038264Y0083500D03*
X0038264Y0078500D03*
X0038264Y0073500D03*
X0038264Y0068500D03*
X0038264Y0063500D03*
M02*
