%
M48
M72
T01C0.02400
T02C0.03200
T03C0.03600
%
T01
X27100Y69400
X30700Y73000
X30700Y78400
X51400Y69400
X65800Y81100
X74800Y73000
X81100Y72100
X73000Y91000
X119800Y73900
X136900Y23500
X116200Y19000
T02
X31000Y13500
X41000Y13500
X51000Y13500
X61000Y13500
X71000Y13500
X81000Y13500
X91000Y13500
X101000Y13500
X101000Y43500
X91000Y43500
X81000Y43500
X71000Y43500
X61000Y43500
X51000Y43500
X41000Y43500
X31000Y43500
T03
X16000Y63500
X16000Y73500
X16000Y83500
X148500Y83500
X148500Y73500
X148500Y63500
M30
