G75*
%MOIN*%
%OFA0B0*%
%FSLAX25Y25*%
%IPPOS*%
%LPD*%
%AMOC8*
5,1,8,0,0,1.08239X$1,22.5*
%
%ADD10C,0.06000*%
%ADD11C,0.06400*%
%ADD12C,0.04800*%
D10*
X0031000Y0010900D02*
X0031000Y0016100D01*
X0041000Y0016100D02*
X0041000Y0010900D01*
X0051000Y0010900D02*
X0051000Y0016100D01*
X0061000Y0016100D02*
X0061000Y0010900D01*
X0071000Y0010900D02*
X0071000Y0016100D01*
X0081000Y0016100D02*
X0081000Y0010900D01*
X0091000Y0010900D02*
X0091000Y0016100D01*
X0101000Y0016100D02*
X0101000Y0010900D01*
X0101000Y0040900D02*
X0101000Y0046100D01*
X0091000Y0046100D02*
X0091000Y0040900D01*
X0081000Y0040900D02*
X0081000Y0046100D01*
X0071000Y0046100D02*
X0071000Y0040900D01*
X0061000Y0040900D02*
X0061000Y0046100D01*
X0051000Y0046100D02*
X0051000Y0040900D01*
X0041000Y0040900D02*
X0041000Y0046100D01*
X0031000Y0046100D02*
X0031000Y0040900D01*
D11*
X0018800Y0063500D02*
X0013200Y0063500D01*
X0013200Y0073500D02*
X0018800Y0073500D01*
X0018800Y0083500D02*
X0013200Y0083500D01*
X0145700Y0083500D02*
X0151300Y0083500D01*
X0151300Y0073500D02*
X0145700Y0073500D01*
X0145700Y0063500D02*
X0151300Y0063500D01*
D12*
X0119800Y0073900D03*
X0081100Y0072100D03*
X0074800Y0073000D03*
X0065800Y0081100D03*
X0073000Y0091000D03*
X0051400Y0069400D03*
X0030700Y0073000D03*
X0027100Y0069400D03*
X0030700Y0078400D03*
X0116200Y0019000D03*
X0136900Y0023500D03*
M02*
