G75*
%MOIN*%
%OFA0B0*%
%FSLAX25Y25*%
%IPPOS*%
%LPD*%
%AMOC8*
5,1,8,0,0,1.08239X$1,22.5*
%
%ADD10C,0.05200*%
%ADD11C,0.05600*%
%ADD12C,0.01000*%
%ADD13C,0.04000*%
D10*
X0031000Y0010900D02*
X0031000Y0016100D01*
X0041000Y0016100D02*
X0041000Y0010900D01*
X0051000Y0010900D02*
X0051000Y0016100D01*
X0061000Y0016100D02*
X0061000Y0010900D01*
X0071000Y0010900D02*
X0071000Y0016100D01*
X0081000Y0016100D02*
X0081000Y0010900D01*
X0091000Y0010900D02*
X0091000Y0016100D01*
X0101000Y0016100D02*
X0101000Y0010900D01*
X0101000Y0040900D02*
X0101000Y0046100D01*
X0091000Y0046100D02*
X0091000Y0040900D01*
X0081000Y0040900D02*
X0081000Y0046100D01*
X0071000Y0046100D02*
X0071000Y0040900D01*
X0061000Y0040900D02*
X0061000Y0046100D01*
X0051000Y0046100D02*
X0051000Y0040900D01*
X0041000Y0040900D02*
X0041000Y0046100D01*
X0031000Y0046100D02*
X0031000Y0040900D01*
D11*
X0018800Y0063500D02*
X0013200Y0063500D01*
X0013200Y0073500D02*
X0018800Y0073500D01*
X0018800Y0083500D02*
X0013200Y0083500D01*
X0145700Y0083500D02*
X0151300Y0083500D01*
X0151300Y0073500D02*
X0145700Y0073500D01*
X0145700Y0063500D02*
X0151300Y0063500D01*
D12*
X0148500Y0063500D02*
X0147700Y0063100D01*
X0031600Y0063100D01*
X0025300Y0056800D01*
X0010900Y0056800D01*
X0007300Y0060400D01*
X0007300Y0083800D01*
X0011800Y0088300D01*
X0020800Y0088300D01*
X0030700Y0078400D01*
X0016300Y0064000D01*
X0016000Y0063500D01*
X0011800Y0058600D02*
X0009100Y0061300D01*
X0009100Y0076600D01*
X0016000Y0083500D01*
X0010900Y0090100D02*
X0005500Y0084700D01*
X0005500Y0059500D01*
X0028000Y0037000D01*
X0086500Y0037000D01*
X0104500Y0019000D01*
X0116200Y0019000D01*
X0126100Y0023500D02*
X0109000Y0006400D01*
X0057700Y0006400D01*
X0051400Y0012700D01*
X0051000Y0013500D01*
X0024400Y0058600D02*
X0011800Y0058600D01*
X0024400Y0058600D02*
X0035200Y0069400D01*
X0051400Y0069400D01*
X0052300Y0068500D01*
X0082900Y0068500D01*
X0088300Y0073900D01*
X0119800Y0073900D01*
X0138700Y0073900D01*
X0147700Y0082900D01*
X0148500Y0083500D01*
X0081100Y0072100D02*
X0072100Y0081100D01*
X0065800Y0081100D01*
X0074800Y0073000D02*
X0036100Y0073000D01*
X0032500Y0069400D01*
X0027100Y0069400D01*
X0030700Y0073000D02*
X0036100Y0078400D01*
X0024400Y0090100D01*
X0010900Y0090100D01*
X0036100Y0078400D02*
X0048700Y0091000D01*
X0073000Y0091000D01*
X0126100Y0023500D02*
X0136900Y0023500D01*
D13*
X0136900Y0023500D03*
X0116200Y0019000D03*
X0051400Y0069400D03*
X0065800Y0081100D03*
X0074800Y0073000D03*
X0081100Y0072100D03*
X0073000Y0091000D03*
X0030700Y0078400D03*
X0030700Y0073000D03*
X0027100Y0069400D03*
X0119800Y0073900D03*
M02*
